<?xml version="1.0" encoding="UTF-8"?>
<!DOCTYPE svg PUBLIC "-//W3C//DTD SVG 1.0//EN" "http://www.w3.org/TR/2001/REC-SVG-20010904/DTD/svg10.dtd">
<!-- Creator: CorelDRAW X6 -->
<svg xmlns="http://www.w3.org/2000/svg" xml:space="preserve" width="4.58334in" height="4.58334in" version="1.0" style="shape-rendering:geometricPrecision; text-rendering:geometricPrecision; image-rendering:optimizeQuality; fill-rule:evenodd; clip-rule:evenodd"
viewBox="0 0 4583 4583"
 xmlns:xlink="http://www.w3.org/1999/xlink">
 <defs>
  <style type="text/css">
   <![CDATA[
    .fil0 {fill:#FFD43F}
    .fil1 {fill:#FF5C00;fill-rule:nonzero}
    .fil2 {fill:#FFD43F;fill-rule:nonzero}
    .fil3 {fill:white;fill-rule:nonzero}
   ]]>
  </style>
 </defs>
 <g id="Layer_x0020_1">
  <metadata id="CorelCorpID_0Corel-Layer"/>
  <g id="_637784192">
   <circle class="fil0" cx="2292" cy="2292" r="2292"/>
   <g>
    <path class="fil1" d="M2893 2361l-376 -46c-3,0 -7,-1 -10,-1 -1,0 -3,-1 -4,-2l-306 -351c4,38 2,78 -7,118l-28 115c-20,84 -33,169 -39,255l96 110c66,75 156,121 256,130l371 45c8,1 16,1 24,1 93,-1 173,-70 185,-165 13,-103 -61,-197 -164,-209z"/>
    <path class="fil1" d="M1643 1853c-112,136 -184,301 -202,476 -26,255 -10,514 50,763l28 115c37,155 176,259 329,259 26,0 53,-3 79,-9 182,-44 294,-226 250,-408l-24 -100c-38,-157 -54,-320 -44,-481 6,-92 19,-184 41,-274l28 -115c10,-40 12,-79 7,-118 -1,-4 -1,-9 -2,-13 -29,-186 -235,-288 -403,-204 -52,26 -99,63 -136,108z"/>
    <path class="fil2" d="M2723 1477c0,242 -196,438 -438,438 -242,0 -438,-196 -438,-438 0,-242 196,-438 438,-438 242,0 438,196 438,438z"/>
    <path class="fil1" d="M2702 1477c0,230 -187,417 -417,417 -230,0 -417,-187 -417,-417 0,-230 187,-417 417,-417 230,0 417,187 417,417z"/>
    <path class="fil1" d="M1885 2990l573 -340c128,-71 286,-59 401,32l523 412c106,84 124,237 41,343 -84,106 -237,124 -343,41l-457 -360 -518 266 -219 -394z"/>
    <path class="fil1" d="M1976 3412c-72,-6 -140,-47 -178,-115 -60,-109 -21,-246 88,-307l582 -323c122,-68 271,-56 380,31l523 412c98,77 115,219 38,317 -77,98 -219,115 -317,38l-467 -368 -520 289c-41,23 -86,31 -129,28z"/>
    <path class="fil3" d="M3680 3544l-1344 0c-32,0 -57,-26 -57,-57l0 -939c0,-32 26,-57 57,-57l1344 0c32,0 57,26 57,57l0 939c0,32 -26,57 -57,57z"/>
    <path class="fil1" d="M3667 3523l-1317 0c-24,0 -43,-19 -43,-43l0 -927c0,-24 19,-43 43,-43l1317 0c24,0 43,19 43,43l0 927c0,24 -19,43 -43,43z"/>
    <polygon class="fil3" points="3647,3433 2370,3433 2370,2556 3647,2556 "/>
    <path class="fil3" d="M3044 3478c0,17 -16,30 -35,30 -19,0 -35,-14 -35,-30 0,-17 16,-30 35,-30 19,0 35,14 35,30z"/>
    <path class="fil3" d="M2775 3490l-163 0c-8,0 -15,-5 -15,-11 0,-6 7,-11 15,-11l163 0c8,0 15,5 15,11 0,6 -7,11 -15,11z"/>
    <path class="fil3" d="M3405 3490l-163 0c-8,0 -15,-5 -15,-11 0,-6 7,-11 15,-11l163 0c8,0 15,5 15,11 0,6 -7,11 -15,11z"/>
    <path class="fil2" d="M1842 2197l-329 424c-22,26 -40,56 -54,87l-217 490c-46,104 -168,152 -273,105 -44,-19 -78,-53 -99,-92 -29,-54 -33,-120 -7,-181l217 -490c29,-67 68,-129 115,-185l358 -400 289 241z"/>
    <path class="fil1" d="M887 3202c-26,-49 -30,-110 -6,-164l217 -490c29,-65 66,-126 112,-180l343 -412c66,-80 185,-91 265,-24 80,66 91,185 24,265l-343 412c-23,28 -42,59 -57,92l-217 490c-42,95 -153,138 -248,96 -40,-18 -71,-48 -90,-84z"/>
    <path class="fil1" d="M2404 2811c0,0 96,-53 120,-68 25,-15 47,-42 55,-47 8,-5 46,-23 83,21 36,44 19,69 10,79 -5,6 -13,17 -27,17 -10,0 -17,0 -23,-8 -5,-7 -11,-11 -27,-8 -23,5 -67,19 -109,47 -42,28 -68,45 -68,45l-15 -78z"/>
    <path class="fil1" d="M2637 2666c5,-1 14,-17 28,-8 14,9 23,12 28,15 5,3 18,16 14,28 -4,11 -16,10 -21,13 -5,3 -6,8 -11,6 -5,-2 -20,-21 -34,-27 -14,-6 -18,-6 -19,-9 -1,-3 2,-13 15,-17z"/>
    <path class="fil1" d="M3242 3141c-2,4 -10,23 -14,24 -4,1 -14,-3 -19,-8 -4,-6 -13,-2 -17,-1 -3,2 -13,8 -18,13 -5,5 -13,15 -16,33 -1,10 1,18 7,29 0,0 3,20 20,26 18,6 11,-20 18,-28 7,-8 12,-8 18,-8 6,0 9,-4 18,-6 10,-2 21,0 21,-7 0,-7 -1,-14 7,-20 0,0 9,-7 14,-9 5,-2 -8,-25 -16,-33 -8,-8 -19,-14 -24,-5z"/>
    <path class="fil1" d="M3281 3184c-4,2 -11,5 -15,10 -1,5 0,13 -3,18 -4,5 -12,6 -20,6 -8,0 -10,6 -22,6 -17,0 -19,16 -18,24 1,8 -9,14 -13,13 -4,-1 -5,1 -6,7 -1,6 -4,26 -25,43 -3,7 2,16 7,19 5,4 3,15 14,22 11,7 16,20 37,16 21,-3 42,-3 51,-46 1,-19 6,-32 18,-44 12,-12 20,-24 22,-37 2,-12 14,-16 10,-19 -3,-3 -25,-17 -29,-23 -4,-6 -2,-18 -7,-16z"/>
    <path class="fil1" d="M3292 3125c-5,-2 -10,0 -13,3 -3,3 -10,5 -13,7 -2,3 0,9 1,9 1,0 18,15 17,30 2,15 2,18 14,28 11,9 25,19 29,29 1,3 4,5 7,4 2,0 3,-2 6,-5 5,-4 26,-34 22,-49 -4,-16 -11,-8 -18,-5 -8,3 -11,9 -19,1 -8,-8 -9,-12 -14,-23 -4,-10 -10,-25 -20,-30z"/>
    <path class="fil1" d="M3338 3104c-5,-3 -9,0 -12,3 -4,3 -9,2 -14,6 -5,4 -9,13 -8,15 1,2 8,6 10,14 2,8 2,15 7,21 5,6 7,15 15,12 8,-3 14,-8 18,-8 4,0 10,-2 5,-10 -5,-9 -1,-12 -5,-21 -3,-9 -9,-27 -17,-32z"/>
    <path class="fil1" d="M3385 3170c-3,1 -3,6 -8,7 -4,1 -7,-1 -8,2 -1,3 -5,9 -3,20 2,11 0,11 -4,21 -4,10 8,9 15,6 7,-2 14,-4 24,-15 10,-11 34,-40 51,-49 16,-10 35,-22 46,-21 11,2 21,-8 22,-11 1,-3 4,-14 -1,-16 -5,-2 -12,-4 -17,0 -5,4 -15,9 -25,12 -9,2 -33,12 -46,19 -13,8 -28,22 -34,24 -6,2 -8,0 -12,1z"/>
    <path class="fil1" d="M3367 3103c-1,-4 -5,-7 -9,-8 -2,0 -4,0 -6,1 -6,4 -7,5 -4,11 3,5 7,12 8,20 1,7 3,14 6,16 3,2 11,0 13,-6 2,-6 7,-13 0,-20 -4,-4 -7,-10 -8,-14z"/>
    <path class="fil1" d="M3372 3146c-7,1 -11,8 -9,14 0,1 1,1 1,2 3,7 2,11 8,9 6,-2 11,3 9,-8 -2,-11 -1,-18 -6,-18 -1,0 -2,0 -3,0z"/>
    <path class="fil1" d="M3501 3088c-6,3 -27,14 -39,18 -11,4 -34,13 -42,18 -8,5 -16,14 -21,13 -5,-1 -7,-7 -12,-3 -4,3 -6,17 -5,19 1,2 -2,10 5,9 7,-1 17,-6 24,-13 7,-7 21,-14 32,-18 11,-4 24,-10 38,-15 14,-5 29,-3 33,-9 4,-6 5,-18 -1,-20 -6,-2 -10,0 -13,2z"/>
    <path class="fil1" d="M3380 3114c-2,-3 21,-2 30,-6 9,-4 45,-15 50,-18 5,-2 36,-19 40,-20 4,-1 14,-3 15,3 1,6 2,6 0,9 -2,2 -9,-1 -15,3 -6,3 -29,17 -37,18 -8,1 -46,19 -52,23 -5,4 -8,11 -15,7 -6,-3 -9,-5 -12,-2 -3,3 0,-8 -5,-17z"/>
    <path class="fil1" d="M3380 3093c4,4 15,4 26,-1 11,-5 36,-12 41,-12 5,0 30,-6 36,-9 6,-3 18,-8 19,-6 1,2 0,3 -1,3 -1,1 -7,1 -11,4 -4,3 -33,19 -38,18 -6,0 -41,17 -44,16 -3,0 -29,4 -30,5 -1,1 -5,-3 -7,-6 -2,-3 -5,-9 -2,-12 3,-3 7,-6 11,-1z"/>
    <path class="fil1" d="M3555 3009c-4,2 -6,2 -11,10 -5,8 -7,16 -16,25 -9,9 -18,13 -18,16 0,3 9,5 8,12 -2,7 2,12 6,7 4,-5 11,-6 13,-17 2,-10 9,-13 13,-23 5,-11 11,-16 11,-22 0,-6 -5,-9 -7,-8z"/>
    <path class="fil1" d="M3560 3033c5,-1 8,7 4,15 -4,8 -10,16 -15,22 -5,6 -13,22 -18,27 -5,5 -8,4 -8,-2 0,-6 -3,-8 5,-13 8,-5 12,-18 16,-23 4,-5 13,-26 17,-27z"/>
    <path class="fil1" d="M3569 3055c5,6 2,14 -7,22 -9,8 -17,15 -20,24 -4,9 -10,22 -14,23 -4,0 -1,-4 -2,-10 -1,-6 -4,-5 3,-11 7,-6 10,-6 14,-16 4,-9 21,-35 23,-35 2,1 1,0 3,4z"/>
    <path class="fil1" d="M3562 3002c4,-3 17,-6 20,-9 3,-4 5,-10 8,-7 3,3 6,5 2,10 -4,6 -6,3 -12,11 -6,8 -6,14 -10,13 -4,0 -3,-5 -4,-8 -2,-2 -11,-4 -3,-10z"/>
    <path class="fil1" d="M3606 2982c3,0 12,-5 14,-2 2,2 5,2 0,6 -5,5 -2,3 -8,7 -7,4 -12,6 -14,2 -1,-5 -2,-8 -4,-10 -2,-1 -4,-4 -1,-6 3,-2 8,2 12,3z"/>
    <path class="fil1" d="M3594 3000c3,-2 9,7 5,11 -4,4 -8,2 -11,10 -4,8 -11,22 -15,20 -4,-2 -4,-8 -7,-10 -3,-2 -3,-6 6,-8 9,-2 17,-18 22,-23z"/>
    <path class="fil1" d="M3600 3015c4,1 2,9 -2,13 -4,4 -5,6 -9,14 -4,8 -8,23 -12,18 -3,-5 -10,-9 -8,-12 2,-3 6,-4 9,-8 3,-5 10,-15 12,-18 2,-4 5,-7 10,-6z"/>
    <path class="fil1" d="M3614 2997c4,-1 10,3 7,7 -3,5 -9,8 -12,9 -3,1 -3,1 -4,-5 -1,-6 -6,-6 10,-11z"/>
    <path class="fil1" d="M3613 3015c7,-1 14,0 8,5 -5,5 -7,4 -13,5 -6,2 -3,-3 -4,-7 -1,-4 3,-3 8,-4z"/>
    <path class="fil1" d="M2866 2988c-5,-5 -10,-9 -16,-13 0,0 0,0 0,0 -41,-33 -92,-76 -116,-85 -24,-9 -39,-7 -56,-18 -18,-12 -27,-29 -24,-38 3,-8 12,-17 32,-37 5,-5 15,-28 22,-32 7,-4 15,-7 30,6 15,13 27,11 45,24 18,13 41,50 54,68 18,24 107,105 142,138 32,30 71,63 79,69 25,19 43,30 44,31 34,23 48,25 57,29 9,5 9,9 12,14 2,4 8,5 10,10 2,5 -7,5 -16,15 -10,10 -13,35 -9,54 3,19 0,20 -6,19 -6,-1 -17,-6 -23,-9 -6,-3 -20,-15 -30,-30 -10,-14 -57,-57 -57,-57l-174 -158z"/>
    <path class="fil1" d="M2648 2880c-3,-6 4,-15 11,-9 2,2 4,4 7,5 8,5 23,13 42,14 27,2 28,21 47,40 19,19 74,74 101,95 26,20 85,73 100,83 1,1 22,17 23,18l43 35c0,0 29,26 48,39 19,13 40,30 48,43 9,13 -14,9 -33,0 -18,-9 -140,-107 -152,-116 0,0 -158,-131 -183,-162 -26,-31 -52,-49 -69,-60 -17,-11 -30,-19 -32,-25z"/>
   </g>
  </g>
 </g>
</svg>
